<svg xmlns="http://www.w3.org/2000/svg" width="32" height="32" viewBox="0 0 32 32" fill="none">
  <path d="M15.1031 4.48338C15.47 3.74021 16.5297 3.74021 16.8965 4.48338L19.8874 10.5425C20.0329 10.8374 20.3141 11.0418 20.6395 11.0894L27.3294 12.0672C28.1493 12.187 28.4761 13.1949 27.8825 13.773L23.0433 18.4864C22.8074 18.7162 22.6998 19.0473 22.7554 19.3718L23.8973 26.0294C24.0374 26.8463 23.1798 27.4693 22.4462 27.0835L16.4653 23.9382C16.1739 23.785 15.8258 23.785 15.5344 23.9382L9.55347 27.0835C8.81984 27.4693 7.96229 26.8463 8.10241 26.0294L9.24426 19.3718C9.29992 19.0473 9.19226 18.7162 8.95638 18.4864L4.11718 13.773C3.52359 13.1949 3.85037 12.187 4.67029 12.0672L11.3602 11.0894C11.6856 11.0418 11.9667 10.8374 12.1123 10.5425L15.1031 4.48338Z" fill="#DD431B"/>
</svg>