<svg xmlns="http://www.w3.org/2000/svg" width="33" height="32" viewBox="0 0 33 32" fill="none">
  <path d="M15.6034 4.48313C15.9702 3.73997 17.03 3.73997 17.3968 4.48313L20.3876 10.5423C20.5332 10.8371 20.8144 11.0416 21.1397 11.0891L27.8296 12.067C28.6495 12.1868 28.9763 13.1946 28.3827 13.7728L23.5435 18.4862C23.3077 18.7159 23.2 19.0471 23.2557 19.3716L24.3975 26.0291C24.5376 26.8461 23.6801 27.4691 22.9465 27.0833L16.9655 23.938C16.6742 23.7847 16.326 23.7847 16.0346 23.938L10.0537 27.0833C9.32008 27.4691 8.46254 26.8461 8.60265 26.0291L9.7445 19.3716C9.80016 19.0471 9.6925 18.7159 9.45663 18.4862L4.61743 13.7728C4.02383 13.1946 4.35062 12.1868 5.17053 12.067L11.8604 11.0891C12.1858 11.0416 12.467 10.8371 12.6125 10.5423L15.6034 4.48313Z" fill="#AAAAAA"/>
</svg>